<svg width="32" height="32" viewBox="0 0 32 32" fill="none" xmlns="http://www.w3.org/2000/svg">
<path d="M16 32C24.8366 32 32 24.8366 32 16C32 7.16344 24.8366 0 16 0C7.16344 0 0 7.16344 0 16C0 24.8366 7.16344 32 16 32Z" fill="#F2F2F2"/>
<path d="M24.3117 14.1548C24.1489 14.1729 23.9861 14.1819 23.8233 14.1819C22.0234 14.1819 20.3411 13.2775 19.3462 11.767V19.9976C19.3462 23.3623 16.6238 26.0847 13.2592 26.0847C9.89456 26.0847 7.17212 23.3623 7.17212 19.9976C7.17212 16.633 9.89456 13.9106 13.2592 13.9106C13.3858 13.9106 13.5124 13.9196 13.639 13.9287V16.9315C13.5124 16.9134 13.3948 16.8953 13.2592 16.8953C11.5407 16.8953 10.1569 18.2882 10.1569 19.9976C10.1569 21.7161 11.5497 23.1 13.2592 23.1C14.9777 23.1 16.4881 21.7523 16.4881 20.0338L16.5152 6.05078H19.3824C19.6537 8.61946 21.725 10.6364 24.3027 10.8173L24.3117 14.1548Z" fill="black"/>
</svg>
