<svg width="32" height="32" viewBox="0 0 32 32" fill="none" xmlns="http://www.w3.org/2000/svg">
<path d="M16 32C24.8366 32 32 24.8366 32 16C32 7.16344 24.8366 0 16 0C7.16344 0 0 7.16344 0 16C0 24.8366 7.16344 32 16 32Z" fill="#F2F2F2"/>
<path d="M24.566 13.7119C24.566 11.5864 22.8475 9.86792 20.722 9.86792H10.8995C8.77403 9.86792 7.05554 11.5864 7.05554 13.7119V18.2885C7.05554 20.414 8.77403 22.1325 10.8995 22.1325H20.722C22.8475 22.1325 24.566 20.414 24.566 18.2885V13.7119ZM18.7865 16.3439L14.3817 18.5237C14.2099 18.6141 13.622 18.4875 13.622 18.2975V13.8204C13.622 13.6214 14.2099 13.4948 14.3908 13.5943L18.6056 15.8917C18.7865 15.9912 18.9674 16.2444 18.7865 16.3439Z" fill="black"/>
</svg>
