<svg width="32" height="32" viewBox="0 0 32 32" fill="none" xmlns="http://www.w3.org/2000/svg">
<path d="M16 32C24.8366 32 32 24.8366 32 16C32 7.16344 24.8366 0 16 0C7.16345 0 0 7.16344 0 16C0 24.8366 7.16345 32 16 32Z" fill="#F2F2F2"/>
<path d="M24.8459 10.519C24.2942 10.7722 23.6791 10.926 23.0822 11.0255C23.3626 10.9802 23.7786 10.4647 23.9505 10.2567C24.2037 9.94009 24.4208 9.57831 24.5384 9.18939C24.5565 9.16225 24.5655 9.11703 24.5384 9.09894C24.5022 9.08085 24.4751 9.0899 24.4479 9.10799C23.7786 9.46978 23.0912 9.72303 22.3586 9.91296C22.2953 9.93105 22.2501 9.91296 22.2139 9.87678C22.1506 9.80443 22.0963 9.74111 22.033 9.68685C21.7255 9.42455 21.3908 9.21652 21.02 9.06276C20.5316 8.86378 19.998 8.78238 19.4643 8.80951C18.9488 8.84569 18.4423 8.99041 17.99 9.22557C17.5288 9.46073 17.1218 9.79538 16.7961 10.1933C16.4615 10.6094 16.2082 11.0978 16.0816 11.6134C15.955 12.1108 15.9731 12.6083 16.0454 13.1148C16.0545 13.1962 16.0454 13.2143 15.9731 13.1962C13.0969 12.7711 10.7181 11.74 8.78258 9.53308C8.70118 9.43359 8.65595 9.43359 8.5836 9.54213C7.7334 10.8084 8.14945 12.8525 9.20768 13.8474C9.35239 13.9831 9.49711 14.1187 9.65087 14.2363C9.5966 14.2454 8.89112 14.173 8.26703 13.8474C8.18563 13.7931 8.14041 13.8203 8.13136 13.9197C8.12232 14.0554 8.13136 14.182 8.1585 14.3358C8.3213 15.6201 9.20768 16.814 10.4287 17.2753C10.5734 17.3386 10.7362 17.3929 10.89 17.42C10.6096 17.4833 10.3292 17.5286 9.53329 17.4653C9.43379 17.4472 9.39762 17.4924 9.43379 17.5919C10.0307 19.2199 11.3241 19.7083 12.2919 19.9887C12.4185 20.0068 12.5542 20.0068 12.6808 20.043C12.6718 20.052 12.6627 20.052 12.6537 20.0701C12.3281 20.5585 11.2156 20.9203 10.7 21.1012C9.7594 21.4268 8.72831 21.5806 7.7334 21.4811C7.57059 21.454 7.54346 21.463 7.49824 21.4811C7.45301 21.5082 7.48919 21.5444 7.54346 21.5896C7.74244 21.7253 7.95047 21.8429 8.1585 21.9514C8.79162 22.286 9.45188 22.5574 10.1393 22.7473C13.7029 23.7332 17.7187 23.0096 20.3869 20.3505C22.4852 18.2612 23.2269 15.385 23.2269 12.4997C23.2269 12.3912 23.3626 12.3279 23.4349 12.2646C23.9776 11.8576 24.4208 11.3601 24.8278 10.8174C24.9183 10.6908 24.9183 10.5823 24.9183 10.537C24.9183 10.528 24.9183 10.519 24.9183 10.519C24.9092 10.4737 24.9092 10.4918 24.8459 10.519Z" fill="black"/>
</svg>
